<?xml version="1.0" encoding="UTF-8"?>
<svg width="26px" height="32px" viewBox="0 0 26 32" version="1.1" xmlns="http://www.w3.org/2000/svg" xmlns:xlink="http://www.w3.org/1999/xlink">
    <!-- Generator: Sketch 48.2 (47327) - http://www.bohemiancoding.com/sketch -->
    <title>Group 3</title>
    <desc>Created with Sketch.</desc>
    <defs></defs>
    <g id="Cards_CreditCard_DetailPage_New" stroke="none" stroke-width="1" fill="none" fill-rule="evenodd" transform="translate(-180.000000, -1813.000000)">
        <g id="Group-3" transform="translate(180.000000, 1813.000000)">
            <g id="Group-10" stroke="#ffffff">
                <path d="M0.5,31.5 L17.3333333,31.5 L25.5,31.5 L25.5,8.93335971 L17.1252053,0.5 L0.5,0.5 L0.5,31.5 Z" id="Stroke-2193"></path>
                <polyline id="Path-2" points="16.9279978 0.0715390056 16.9279978 9.00821962 25.687569 9.00821962"></polyline>
            </g>
            <rect id="Rectangle-18" fill="#D90A25" x="3" y="16" width="20" height="11"></rect>
            <path d="M10.4244776,20.7171118 C10.4244776,20.9650523 10.383881,21.1958446 10.3026866,21.4094955 C10.2214921,21.6231465 10.1068664,21.8090991 9.95880597,21.9673591 C9.81074553,22.125619 9.62925481,22.2495874 9.41432836,22.3392681 C9.19940191,22.4289487 8.96059833,22.4737883 8.69791045,22.4737883 L7.93134328,22.4737883 L7.93134328,24.3333333 L7,24.3333333 L7,19 L8.74089552,19 C9.0035834,19 9.23999895,19.0448396 9.45014925,19.1345203 C9.66029956,19.2242009 9.83701421,19.3455317 9.98029851,19.4985163 C10.1235828,19.6515009 10.2334325,19.8334971 10.3098507,20.0445104 C10.386269,20.2555236 10.4244776,20.4797219 10.4244776,20.7171118 Z M9.49313433,20.7171118 C9.49313433,20.4638959 9.42865736,20.2621175 9.29970149,20.1117705 C9.17074562,19.9614236 8.98447883,19.8862512 8.74089552,19.8862512 L7.93134328,19.8862512 L7.93134328,21.5875371 L8.69791045,21.5875371 C8.9462699,21.5875371 9.14089482,21.5097271 9.28179104,21.3541048 C9.42268727,21.1984826 9.49313433,20.9861537 9.49313433,20.7171118 Z M15.1456716,21.6429278 C15.1456716,22.5291835 14.9343305,23.1991405 14.5116418,23.652819 C14.0889531,24.1064975 13.4764219,24.3333333 12.6740299,24.3333333 L11.1695522,24.3333333 L11.1695522,19 L12.6740299,19 C13.4764219,19 14.0889531,19.225517 14.5116418,19.6765579 C14.9343305,20.1275987 15.1456716,20.7830488 15.1456716,21.6429278 Z M14.2143284,21.6429278 C14.2143284,21.3264079 14.1785078,21.0560512 14.1068657,20.8318497 C14.0352235,20.6076481 13.933732,20.4256519 13.8023881,20.2858556 C13.6710441,20.1460593 13.5098517,20.0445107 13.318806,19.9812067 C13.1277602,19.9179027 12.912837,19.8862512 12.6740299,19.8862512 L12.1008955,19.8862512 L12.1008955,23.4470821 L12.6740299,23.4470821 C12.912837,23.4470821 13.1277602,23.412793 13.318806,23.3442136 C13.5098517,23.2756343 13.6710441,23.1674917 13.8023881,23.0197824 C13.933732,22.8720731 14.0352235,22.6848017 14.1068657,22.4579624 C14.1785078,22.2311232 14.2143284,21.9594477 14.2143284,21.6429278 Z M15.919403,19 L19,19 L19,19.8704253 L16.8220896,19.8704253 L16.8220896,21.231454 L18.8638806,21.231454 L18.8638806,22.1177052 L16.8220896,22.1177052 L16.8220896,24.3333333 L15.919403,24.3333333 L15.919403,19 Z" id="PDF" fill="#F9F9FA"></path>
        </g>
    </g>
</svg>